<svg width="80" height="80" viewBox="0 0 80 80" fill="none" xmlns="http://www.w3.org/2000/svg">
<path d="M40 33.3594C44.7462 33.3594 48.5938 29.5118 48.5938 24.7656C48.5938 20.0194 44.7462 16.1719 40 16.1719C35.2538 16.1719 31.4062 20.0194 31.4062 24.7656C31.4062 29.5118 35.2538 33.3594 40 33.3594Z" fill="#0268BE"/>
<path d="M66.5625 27.8906C66.5625 23.5828 63.0578 20.0781 58.75 20.0781C54.5656 20.0781 51.1391 23.3844 50.9469 27.5219C53.7206 29.5211 55.9689 32.2941 57.3266 35.5734C57.7891 35.6578 58.2641 35.7031 58.75 35.7031C63.0513 35.7031 66.5625 32.2041 66.5625 27.8906Z" fill="#0268BE"/>
<path d="M29.0531 27.5219C28.8609 23.3844 25.4344 20.0781 21.25 20.0781C16.9422 20.0781 13.4375 23.5828 13.4375 27.8906C13.4375 32.7309 17.8288 36.4573 22.6734 35.5734C24.0064 32.3536 26.2189 29.5647 29.0531 27.5219Z" fill="#0268BE"/>
<path d="M11.175 35.2844C11.175 35.2828 11.1734 35.2828 11.1719 35.2812C8.70781 37.8141 7.1875 41.2719 7.1875 45.0781V56.7969C7.1875 58.0906 8.2375 59.1406 9.53125 59.1406H21.25V42.7344C21.25 41.9406 21.3 41.1578 21.3969 40.3891C21.3484 40.3906 21.2984 40.3906 21.25 40.3906C17.2922 40.3906 13.5266 38.4812 11.175 35.2844Z" fill="#0268BE"/>
<path d="M70.4688 59.1406C71.7625 59.1406 72.8125 58.0906 72.8125 56.7969V45.0781C72.8125 41.2719 71.2922 37.8141 68.8282 35.2812C68.8266 35.2812 68.8266 35.2828 68.8266 35.2828C66.4735 38.4812 62.7078 40.3906 58.75 40.3906C58.7016 40.3906 58.6516 40.3906 58.6031 40.3891C58.7 41.1578 58.75 41.9406 58.75 42.7344V59.1406H70.4688Z" fill="#0268BE"/>
<path d="M40 38.0469C35.8562 38.0469 32.15 36.1406 29.7125 33.1578C27.3703 35.6688 25.9375 39.0375 25.9375 42.7344V61.4844C25.9375 62.7781 26.9875 63.8281 28.2812 63.8281H51.7188C53.0125 63.8281 54.0625 62.7781 54.0625 61.4844V42.7344C54.0625 39.0375 52.6297 35.6688 50.2875 33.1578C47.85 36.1406 44.1437 38.0469 40 38.0469Z" fill="#0268BE"/>
<path d="M77.6562 57.9688C76.3619 57.9688 75.3125 59.0181 75.3125 60.3125V72.1875H63.4375C62.1431 72.1875 61.0938 73.2369 61.0938 74.5312C61.0938 75.8256 62.1431 76.875 63.4375 76.875H77.6562C78.9506 76.875 80 75.8256 80 74.5312V60.3125C80 59.0181 78.9506 57.9688 77.6562 57.9688Z" fill="#0268BE"/>
<path d="M16.5625 72.1875H4.6875V60.3125C4.6875 59.0181 3.63812 57.9688 2.34375 57.9688C1.04937 57.9688 0 59.0181 0 60.3125V74.5312C0 75.8256 1.04937 76.875 2.34375 76.875H16.5625C17.8569 76.875 18.9062 75.8256 18.9062 74.5312C18.9062 73.2369 17.8569 72.1875 16.5625 72.1875Z" fill="#0268BE"/>
<path d="M2.34375 22.0312C3.63812 22.0312 4.6875 20.9819 4.6875 19.6875V7.8125H16.5625C17.8569 7.8125 18.9062 6.76312 18.9062 5.46875C18.9062 4.17437 17.8569 3.125 16.5625 3.125H2.34375C1.04937 3.125 0 4.17437 0 5.46875V19.6875C0 20.9819 1.04937 22.0312 2.34375 22.0312Z" fill="#0268BE"/>
<path d="M77.6562 3.125H63.2812C61.9869 3.125 60.9375 4.17437 60.9375 5.46875C60.9375 6.76312 61.9869 7.8125 63.2812 7.8125H75.3125V19.6875C75.3125 20.9819 76.3619 22.0312 77.6562 22.0312C78.9506 22.0312 80 20.9819 80 19.6875V5.46875C80 4.17437 78.9506 3.125 77.6562 3.125Z" fill="#0268BE"/>
</svg>
