<svg width="65" height="65" viewBox="0 0 65 65" fill="none" xmlns="http://www.w3.org/2000/svg">
<path d="M64.987 34.9801C64.9093 33.1799 63.148 31.7424 59.742 30.7063C57.1 29.9163 53.7458 29.4371 50.1195 29.3594V15.5409C50.1066 15.3078 50.0418 15.0877 49.9253 14.8934C49.5627 13.3264 47.8143 12.0572 44.7191 11.1247C41.8051 10.2441 37.9976 9.76489 33.9958 9.76489C30.007 9.76489 26.2383 10.2441 23.3762 11.1247C21.0321 11.85 18.2218 13.1969 18.2218 15.515C18.2218 15.6575 18.2347 15.8 18.2606 15.9424L18.4031 21.848C9.98506 20.2421 1.86491 25.7721 0.271967 34.1771C0.0906555 35.1355 0 36.0938 0 37.0651C0 45.6127 6.95457 52.5672 15.5021 52.5672C19.0636 52.5672 22.5085 51.3499 25.267 49.0964C27.6888 49.6663 30.538 49.9771 33.5555 50.003C34.216 53.5903 41.9865 55.2351 49.2259 55.2351C53.2148 55.2351 56.9835 54.743 59.8456 53.8494C62.1897 53.1241 65 51.7643 65 49.4461V35.2261C65 35.1484 65 35.0578 64.987 34.9801ZM47.4128 22.7027C47.4128 22.8711 46.7912 23.7647 43.9809 24.6194C41.3519 25.4094 37.7127 25.8757 34.0088 25.8757C30.8099 25.8757 27.6758 25.5389 25.1893 24.9044C25.1504 24.8914 25.1245 24.8914 25.0857 24.8785C23.8553 23.9071 22.4955 23.1301 21.0321 22.5862L20.9414 18.934C21.835 19.3873 22.7675 19.7499 23.7388 20.009C26.5491 20.8249 30.1883 21.2652 34.0088 21.2652C37.9976 21.2652 41.8181 20.786 44.732 19.9054C45.7033 19.6204 46.6487 19.2449 47.5423 18.7786V22.1717C47.3999 22.3531 47.4128 22.5214 47.4128 22.7027ZM24.1532 13.6242C26.7693 12.8213 30.266 12.368 33.9958 12.368C37.6997 12.368 41.3389 12.8213 43.9679 13.6242C46.7782 14.479 47.3999 15.3596 47.3999 15.528C47.3999 15.7093 46.7653 16.6029 43.955 17.4447C41.326 18.2347 37.6997 18.688 33.9958 18.688C30.4214 18.688 27.0283 18.2736 24.4511 17.5224C21.6667 16.7195 20.8896 15.8388 20.8249 15.5539C20.8249 15.528 20.8119 15.528 20.8119 15.528C20.8249 15.2819 21.4206 14.4531 24.1532 13.6242ZM24.1921 46.6228C18.9211 51.4146 10.7492 51.039 5.95736 45.7681C1.16557 40.4971 1.54114 32.3252 6.81211 27.5334C9.18211 25.3706 12.2903 24.1791 15.5021 24.1791C16.7972 24.1791 18.0793 24.3734 19.3226 24.749C23.8165 26.1476 27.1967 29.8775 28.155 34.475C28.3234 35.3297 28.414 36.2104 28.414 37.0781C28.427 40.7173 26.8858 44.1751 24.1921 46.6228ZM27.4816 46.9077C28.5306 45.6256 29.3724 44.1881 29.9681 42.6469C31.0689 42.7376 32.2086 42.8023 33.4001 42.8153V43.0484L33.4778 47.4387C31.4704 47.4128 29.463 47.2315 27.4816 46.9077ZM30.9394 35.537C31.6906 35.5888 32.4806 35.6147 33.2835 35.6276L33.3612 40.2122C32.4547 40.1992 31.5611 40.1604 30.7063 40.0956C30.9006 39.0984 31.0042 38.0753 31.0042 37.0651C31.0042 36.5601 30.9783 36.055 30.9394 35.537ZM34.1253 33.0504C34.0865 33.0504 34.0347 33.0504 33.9958 33.0504C32.7525 33.0504 31.5481 32.9986 30.4343 32.9209C29.9422 31.1855 29.1652 29.5537 28.1162 28.1032C30.0588 28.3493 32.0143 28.4788 33.9829 28.4788C37.9847 28.4788 41.8051 27.9996 44.7191 27.1189C45.6904 26.834 46.6228 26.4585 47.5164 26.0052V29.3983C41.9605 29.5537 36.2493 30.7193 34.1253 33.0504ZM35.8348 35.1096C35.8348 35.0966 35.8348 35.0837 35.8478 35.0578C35.9643 34.7081 36.8838 33.8534 39.5647 33.1022C42.0771 32.3899 45.3537 32.0014 48.7986 32.0014H49.0187C52.7227 32.0014 56.3489 32.4288 58.9908 33.2317C61.7494 34.0606 62.3969 34.9153 62.4098 35.1096V35.1225C62.3969 35.3168 61.7494 36.2104 58.8743 37.0651C56.2194 37.8551 52.7227 38.2825 49.0317 38.2825C45.4573 38.2825 42.0642 37.8681 39.4869 37.1299C36.7025 36.327 35.9384 35.4333 35.8607 35.1614C35.8348 35.1096 35.8348 35.1096 35.8348 35.1096ZM59.0944 51.3887C56.4784 52.2046 52.9687 52.6579 49.2389 52.6579C45.4961 52.6579 41.9994 52.2176 39.4092 51.4276C36.6766 50.5858 36.1068 49.7181 36.1068 49.5238C36.1068 49.5108 36.1068 49.5109 36.1068 49.4979L36.042 45.7422C37.0781 46.2473 38.153 46.6358 39.2668 46.9207C41.9865 47.633 45.4443 48.0345 48.9928 48.0345C52.9946 48.0345 56.7892 47.5553 59.6902 46.6746C60.6356 46.3897 61.5421 46.0141 62.4098 45.5738V49.459H62.4228C62.4228 49.6404 61.8271 50.534 59.0944 51.3887ZM62.4357 41.8569H62.4228C62.4228 41.9864 62.3451 42.1419 62.3451 42.2843C62.3451 42.4656 61.7364 43.3463 58.939 44.201C56.2841 45.004 52.7486 45.4443 49.0058 45.4443C41.831 45.4443 37.0004 43.8255 35.9902 42.5692L35.9773 41.4814L35.9255 38.5027C36.832 38.956 37.7774 39.3186 38.7488 39.5906C41.5591 40.4065 45.1982 40.8468 49.0187 40.8468C52.9558 40.8468 56.7115 40.3805 59.5995 39.5258C60.5838 39.2538 61.5292 38.8783 62.4357 38.412V41.8569Z" fill="black"/>
<path d="M20.3973 32.5064H18.7267C18.5972 31.9107 18.364 31.3409 18.0403 30.8228H20.3973C21.1355 30.8228 21.7183 30.24 21.7183 29.5277C21.7183 28.8155 21.1355 28.2327 20.4232 28.2327H10.5677C9.85538 28.2327 9.27259 28.8155 9.27259 29.5277C9.27259 30.24 9.85538 30.8228 10.5677 30.8228H13.3909C14.5177 30.8099 15.5537 31.4704 16.02 32.5064H10.5677C9.85538 32.5064 9.27259 33.0892 9.27259 33.8015C9.27259 34.5138 9.85538 35.0966 10.5677 35.0966H16.007C15.8645 35.3686 15.6703 35.6146 15.4501 35.8348C14.8932 36.3787 14.155 36.6636 13.378 36.6507H10.5547C9.82948 36.6636 9.25964 37.2464 9.25964 37.9717C9.25964 38.3213 9.41505 38.6581 9.66112 38.9041L16.7063 45.5608C17.2244 46.053 18.0403 46.0271 18.5324 45.509C19.0245 44.991 18.9986 44.1751 18.4806 43.683L13.7924 39.2538C15.1134 39.1631 16.3437 38.6063 17.2762 37.6738C17.9755 36.9615 18.4806 36.0679 18.7267 35.0966H20.3973C21.1096 35.0966 21.6924 34.5138 21.6924 33.8015C21.6924 33.0892 21.1096 32.5064 20.3973 32.5064Z" fill="black"/>
</svg>
