<svg width="178" height="178" viewBox="0 0 178 178" fill="none" xmlns="http://www.w3.org/2000/svg">
<g filter="url(#filter0_d)">
<circle cx="85" cy="79" r="60" fill="white"/>
</g>
<path d="M116.987 80.9801C116.909 79.1799 115.148 77.7424 111.742 76.7063C109.1 75.9163 105.746 75.4371 102.12 75.3594V61.5409C102.107 61.3078 102.042 61.0877 101.925 60.8934C101.563 59.3264 99.8143 58.0572 96.7191 57.1247C93.8051 56.2441 89.9976 55.7649 85.9958 55.7649C82.007 55.7649 78.2383 56.2441 75.3762 57.1247C73.0321 57.85 70.2218 59.1969 70.2218 61.515C70.2218 61.6575 70.2347 61.8 70.2606 61.9424L70.4031 67.848C61.9851 66.2421 53.8649 71.7721 52.272 80.1771C52.0907 81.1355 52 82.0938 52 83.0651C52 91.6127 58.9546 98.5672 67.5021 98.5672C71.0636 98.5672 74.5085 97.3499 77.267 95.0964C79.6888 95.6663 82.538 95.9771 85.5555 96.003C86.216 99.5903 93.9865 101.235 101.226 101.235C105.215 101.235 108.983 100.743 111.846 99.8494C114.19 99.1241 117 97.7643 117 95.4461V81.2261C117 81.1484 117 81.0578 116.987 80.9801ZM99.4128 68.7027C99.4128 68.8711 98.7912 69.7647 95.9809 70.6194C93.3519 71.4094 89.7127 71.8757 86.0088 71.8757C82.8099 71.8757 79.6758 71.5389 77.1893 70.9044C77.1504 70.8914 77.1245 70.8914 77.0857 70.8785C75.8553 69.9071 74.4955 69.1301 73.0321 68.5862L72.9414 64.934C73.835 65.3873 74.7675 65.7499 75.7388 66.009C78.5491 66.8249 82.1883 67.2652 86.0088 67.2652C89.9976 67.2652 93.8181 66.786 96.732 65.9054C97.7033 65.6204 98.6487 65.2449 99.5423 64.7786V68.1717C99.3999 68.3531 99.4128 68.5214 99.4128 68.7027ZM76.1532 59.6242C78.7693 58.8213 82.266 58.368 85.9958 58.368C89.6997 58.368 93.3389 58.8213 95.9679 59.6242C98.7782 60.479 99.3999 61.3596 99.3999 61.528C99.3999 61.7093 98.7653 62.6029 95.955 63.4447C93.326 64.2347 89.6997 64.688 85.9958 64.688C82.4214 64.688 79.0283 64.2736 76.4511 63.5224C73.6667 62.7195 72.8896 61.8388 72.8249 61.5539C72.8249 61.528 72.8119 61.528 72.8119 61.528C72.8249 61.2819 73.4206 60.4531 76.1532 59.6242ZM76.1921 92.6228C70.9211 97.4146 62.7492 97.039 57.9574 91.7681C53.1656 86.4971 53.5411 78.3252 58.8121 73.5334C61.1821 71.3706 64.2903 70.1791 67.5021 70.1791C68.7972 70.1791 70.0793 70.3734 71.3226 70.749C75.8165 72.1476 79.1967 75.8775 80.155 80.475C80.3234 81.3297 80.414 82.2104 80.414 83.0781C80.427 86.7173 78.8858 90.1751 76.1921 92.6228ZM79.4816 92.9077C80.5306 91.6256 81.3724 90.1881 81.9681 88.6469C83.0689 88.7376 84.2086 88.8023 85.4001 88.8153V89.0484L85.4778 93.4387C83.4704 93.4128 81.463 93.2315 79.4816 92.9077ZM82.9394 81.537C83.6906 81.5888 84.4806 81.6147 85.2835 81.6276L85.3612 86.2122C84.4547 86.1992 83.5611 86.1604 82.7063 86.0956C82.9006 85.0984 83.0042 84.0753 83.0042 83.0651C83.0042 82.5601 82.9783 82.055 82.9394 81.537ZM86.1253 79.0504C86.0865 79.0504 86.0347 79.0504 85.9958 79.0504C84.7525 79.0504 83.5481 78.9986 82.4343 78.9209C81.9422 77.1855 81.1652 75.5537 80.1162 74.1032C82.0588 74.3493 84.0143 74.4788 85.9829 74.4788C89.9847 74.4788 93.8051 73.9996 96.7191 73.1189C97.6904 72.834 98.6228 72.4585 99.5164 72.0052V75.3983C93.9605 75.5537 88.2493 76.7193 86.1253 79.0504ZM87.8348 81.1096C87.8348 81.0966 87.8348 81.0837 87.8478 81.0578C87.9643 80.7081 88.8838 79.8534 91.5647 79.1022C94.0771 78.3899 97.3537 78.0014 100.799 78.0014H101.019C104.723 78.0014 108.349 78.4288 110.991 79.2317C113.749 80.0606 114.397 80.9153 114.41 81.1096V81.1225C114.397 81.3168 113.749 82.2104 110.874 83.0651C108.219 83.8551 104.723 84.2825 101.032 84.2825C97.4573 84.2825 94.0642 83.8681 91.4869 83.1299C88.7025 82.327 87.9384 81.4333 87.8607 81.1614C87.8348 81.1096 87.8348 81.1096 87.8348 81.1096ZM111.094 97.3887C108.478 98.2046 104.969 98.6579 101.239 98.6579C97.4961 98.6579 93.9994 98.2176 91.4092 97.4276C88.6766 96.5858 88.1068 95.7181 88.1068 95.5238C88.1068 95.5108 88.1068 95.5109 88.1068 95.4979L88.042 91.7422C89.0781 92.2473 90.153 92.6358 91.2668 92.9207C93.9865 93.633 97.4443 94.0345 100.993 94.0345C104.995 94.0345 108.789 93.5553 111.69 92.6746C112.636 92.3897 113.542 92.0141 114.41 91.5738V95.459H114.423C114.423 95.6404 113.827 96.534 111.094 97.3887ZM114.436 87.8569H114.423C114.423 87.9864 114.345 88.1419 114.345 88.2843C114.345 88.4656 113.736 89.3463 110.939 90.201C108.284 91.004 104.749 91.4443 101.006 91.4443C93.831 91.4443 89.0004 89.8255 87.9902 88.5692L87.9773 87.4814L87.9255 84.5027C88.832 84.956 89.7774 85.3186 90.7488 85.5906C93.5591 86.4065 97.1982 86.8468 101.019 86.8468C104.956 86.8468 108.711 86.3805 111.6 85.5258C112.584 85.2538 113.529 84.8783 114.436 84.412V87.8569Z" fill="black"/>
<path d="M72.3973 78.5064H70.7267C70.5972 77.9107 70.364 77.3409 70.0403 76.8228H72.3973C73.1355 76.8228 73.7183 76.24 73.7183 75.5277C73.7183 74.8155 73.1355 74.2327 72.4232 74.2327H62.5677C61.8554 74.2327 61.2726 74.8155 61.2726 75.5277C61.2726 76.24 61.8554 76.8228 62.5677 76.8228H65.3909C66.5177 76.8099 67.5537 77.4704 68.02 78.5064H62.5677C61.8554 78.5064 61.2726 79.0892 61.2726 79.8015C61.2726 80.5138 61.8554 81.0966 62.5677 81.0966H68.007C67.8645 81.3686 67.6703 81.6146 67.4501 81.8348C66.8932 82.3787 66.155 82.6636 65.378 82.6507H62.5547C61.8295 82.6636 61.2596 83.2464 61.2596 83.9717C61.2596 84.3213 61.4151 84.6581 61.6611 84.9041L68.7063 91.5608C69.2244 92.053 70.0403 92.0271 70.5324 91.509C71.0245 90.991 70.9986 90.1751 70.4806 89.683L65.7924 85.2538C67.1134 85.1631 68.3437 84.6063 69.2762 83.6738C69.9755 82.9615 70.4806 82.0679 70.7267 81.0966H72.3973C73.1096 81.0966 73.6924 80.5138 73.6924 79.8015C73.6924 79.0892 73.1096 78.5064 72.3973 78.5064Z" fill="black"/>
<defs>
<filter id="filter0_d" x="0" y="0" width="178" height="178" filterUnits="userSpaceOnUse" color-interpolation-filters="sRGB">
<feFlood flood-opacity="0" result="BackgroundImageFix"/>
<feColorMatrix in="SourceAlpha" type="matrix" values="0 0 0 0 0 0 0 0 0 0 0 0 0 0 0 0 0 0 127 0"/>
<feOffset dx="4" dy="10"/>
<feGaussianBlur stdDeviation="14.5"/>
<feColorMatrix type="matrix" values="0 0 0 0 0 0 0 0 0 0 0 0 0 0 0 0 0 0 0.2 0"/>
<feBlend mode="normal" in2="BackgroundImageFix" result="effect1_dropShadow"/>
<feBlend mode="normal" in="SourceGraphic" in2="effect1_dropShadow" result="shape"/>
</filter>
</defs>
</svg>
