<svg width="80" height="80" viewBox="0 0 80 80" fill="none" xmlns="http://www.w3.org/2000/svg">
<g clip-path="url(#clip0)">
<path d="M-0.00012207 28.7896L-0.00012207 75.7798C-0.00012207 77.0742 1.04925 78.1235 2.34363 78.1235H77.6561C78.9505 78.1235 79.9999 77.0742 79.9999 75.7798V28.7028C79.8005 28.7579 -0.00012207 28.7896 -0.00012207 28.7896ZM53.7438 39.8406C53.7438 38.5462 54.7932 37.4968 56.0875 37.4968H64.8088C66.1032 37.4968 67.1525 38.5462 67.1525 39.8406V48.5618C67.1525 49.8562 66.1032 50.9056 64.8088 50.9056H56.0875C54.7932 50.9056 53.7438 49.8562 53.7438 48.5618V39.8406ZM53.7438 58.3514C53.7438 57.057 54.7932 56.0076 56.0875 56.0076H64.8088C66.1032 56.0076 67.1525 57.057 67.1525 58.3514V67.0726C67.1525 68.367 66.1032 69.4164 64.8088 69.4164H56.0875C54.7932 69.4164 53.7438 68.367 53.7438 67.0726V58.3514ZM33.2955 39.8406C33.2955 38.5462 34.3449 37.4968 35.6393 37.4968H44.3607C45.655 37.4968 46.7044 38.5462 46.7044 39.8406V48.5618C46.7044 49.8562 45.655 50.9056 44.3607 50.9056H35.6393C34.3449 50.9056 33.2955 49.8562 33.2955 48.5618V39.8406ZM33.2955 58.3514C33.2955 57.057 34.3449 56.0076 35.6393 56.0076H44.3607C45.655 56.0076 46.7044 57.057 46.7044 58.3514V67.0726C46.7044 68.367 45.655 69.4164 44.3607 69.4164H35.6393C34.3449 69.4164 33.2955 68.367 33.2955 67.0726V58.3514ZM12.8471 39.8406C12.8471 38.5462 13.8964 37.4968 15.1908 37.4968H23.9122C25.2066 37.4968 26.256 38.5462 26.256 39.8406V48.5618C26.256 49.8562 25.2066 50.9056 23.9122 50.9056H15.1908C13.8964 50.9056 12.8471 49.8562 12.8471 48.5618L12.8471 39.8406ZM12.8471 58.3514C12.8471 57.057 13.8964 56.0076 15.1908 56.0076H23.9122C25.2066 56.0076 26.256 57.057 26.256 58.3514L26.256 67.0726C26.256 68.367 25.2066 69.4164 23.9122 69.4164H15.1908C13.8964 69.4164 12.8471 68.367 12.8471 67.0726V58.3514Z" fill="#25D6D9"/>
<path d="M80 24.189V9.60522C80 8.31085 78.9506 7.26147 77.6563 7.26147L60.2284 7.26147V15.0671C60.2284 16.3615 59.1791 17.4108 57.8847 17.4108C56.5903 17.4108 55.5409 16.3615 55.5409 15.0671V7.26147L24.4591 7.26147V15.0671C24.4591 16.3615 23.4097 17.4108 22.1153 17.4108C20.8209 17.4108 19.7716 16.3615 19.7716 15.0671V7.26147L2.34375 7.26147C1.04938 7.26147 0 8.31085 0 9.60522L0 24.1021C0 24.1021 79.8006 24.134 80 24.189Z" fill="#25D6D9"/>
<path d="M24.459 7.26147V4.22022C24.459 2.92584 23.4097 1.87646 22.1153 1.87646C20.8209 1.87646 19.7715 2.92584 19.7715 4.22022V7.26147H24.459Z" fill="#25D6D9"/>
<path d="M60.2285 7.26147V4.22022C60.2285 2.92584 59.1791 1.87646 57.8847 1.87646C56.5903 1.87646 55.541 2.92584 55.541 4.22022V7.26147H60.2285Z" fill="#25D6D9"/>
<path d="M17.5347 42.1843H21.5686V46.2181H17.5347V42.1843Z" fill="#25D6D9"/>
<path d="M37.9832 42.1843H42.0171V46.2181H37.9832V42.1843Z" fill="#25D6D9"/>
<path d="M58.4315 42.1843H62.4653V46.2181H58.4315V42.1843Z" fill="#25D6D9"/>
<path d="M17.5347 60.6951H21.5686V64.7288H17.5347V60.6951Z" fill="#25D6D9"/>
<path d="M37.9832 60.6951H42.0171V64.7288H37.9832V60.6951Z" fill="#25D6D9"/>
<path d="M58.4315 60.6951H62.4653V64.7288H58.4315V60.6951Z" fill="#25D6D9"/>
</g>
<defs>
<clipPath id="clip0">
<rect width="80" height="80" fill="white"/>
</clipPath>
</defs>
</svg>
