<svg width="176" height="172" viewBox="0 0 176 172" fill="none" xmlns="http://www.w3.org/2000/svg">
<g id="Group 14">
<g id="bg">
<circle id="Ellipse 4" cx="93.5" cy="89.5" r="82.5" fill="#0268BE"/>
<circle id="Ellipse 3" cx="82.5" cy="82.5" r="82.5" fill="#25D6D9"/>
</g>
<g id="coding" clip-path="url(#clip0)">
<g id="top">
<path id="Vector" d="M95.2454 59.4631L92.5435 47.5856L43.9426 58.6412C42.8697 58.8853 42.1978 59.9529 42.4419 61.0257L44.7018 70.9606L95.2454 59.4631Z" fill="white"/>
<path id="Vector_2" d="M99.1305 58.5793L111.008 55.8775L108.748 45.9426C108.504 44.8697 107.436 44.1978 106.364 44.4419L96.4286 46.7018L99.1305 58.5793Z" fill="white"/>
</g>
<path id="bottom" d="M45.5856 74.8458L56.6412 123.447C56.8853 124.52 57.9529 125.191 59.0257 124.947L121.447 110.748C122.519 110.504 123.191 109.436 122.947 108.364L111.892 59.7627L45.5856 74.8458ZM91.698 79.4781C92.2841 78.5468 93.5141 78.267 94.4452 78.8531L106.234 86.2724C106.683 86.5554 107.001 87.0064 107.117 87.525C107.233 88.0437 107.136 88.587 106.849 89.0342L99.3922 100.656C99.0985 101.113 98.6488 101.411 98.1575 101.522C97.6545 101.637 97.1079 101.557 96.6396 101.256C95.7135 100.662 95.4446 99.4299 96.0388 98.504L102.411 88.574L92.3231 82.2252C91.3917 81.6392 91.1119 80.4091 91.698 79.4781ZM81.2984 102.632L83.7193 82.0548C83.848 80.9621 84.838 80.1804 85.9307 80.3091C87.0234 80.4376 87.805 81.4277 87.6764 82.5203L85.2555 103.097C85.1541 103.958 84.5183 104.625 83.7189 104.807C83.5034 104.856 83.2762 104.87 83.044 104.843C81.9515 104.714 81.1698 103.724 81.2984 102.632ZM62.1255 96.1176L69.5826 84.4961C70.177 83.57 71.4094 83.3012 72.3352 83.8953C73.2613 84.4895 73.5302 85.7219 72.936 86.6478L66.5642 96.5778L76.6518 102.927C77.583 103.513 77.8627 104.743 77.2767 105.674C76.9836 106.139 76.5295 106.442 76.0326 106.555C75.5354 106.668 74.9951 106.592 74.5296 106.299L62.7412 98.8794C62.2915 98.5964 61.9734 98.1454 61.8578 97.6268C61.7421 97.1081 61.8386 96.5648 62.1255 96.1176Z" fill="white"/>
</g>
</g>
<defs>
<clipPath id="clip0">
<rect width="68" height="68" fill="white" transform="translate(42 59.0831) rotate(-12.8154)"/>
</clipPath>
</defs>
</svg>
