<svg width="20" height="20" viewBox="0 0 20 20" fill="none" xmlns="http://www.w3.org/2000/svg">
<path d="M14.9994 0.00416134L12.4059 0C9.49208 0 7.60908 1.9319 7.60908 4.92203V7.19141H5.00138C4.77604 7.19141 4.59357 7.37409 4.59357 7.59943V10.8875C4.59357 11.1128 4.77625 11.2953 5.00138 11.2953H7.60908V19.5922C7.60908 19.8175 7.79155 20 8.01689 20H11.4192C11.6445 20 11.827 19.8173 11.827 19.5922V11.2953H14.876C15.1014 11.2953 15.2838 11.1128 15.2838 10.8875L15.2851 7.59943C15.2851 7.49123 15.242 7.38762 15.1656 7.31105C15.0893 7.23448 14.9853 7.19141 14.8771 7.19141H11.827V5.26763C11.827 4.34298 12.0474 3.87358 13.2519 3.87358L14.999 3.87295C15.2241 3.87295 15.4066 3.69027 15.4066 3.46514V0.411972C15.4066 0.187052 15.2243 0.00457747 14.9994 0.00416134Z" fill="#9F9F9F"/>
</svg>
