<svg width="65" height="65" viewBox="0 0 65 65" fill="none" xmlns="http://www.w3.org/2000/svg">
<g clip-path="url(#clip0)">
<path d="M37.3242 4.82422C22.9198 4.82422 11.0524 15.8863 9.76609 29.9609H7.217L4.3344 27.0783C3.34277 26.0867 1.73517 26.0867 0.743662 27.0783C-0.247842 28.07 -0.247969 29.6776 0.743662 30.6691L2.57458 32.5L0.743662 34.3309C-0.247969 35.3225 -0.247969 36.9302 0.743662 37.9217C1.73517 38.9132 3.34277 38.9133 4.3344 37.9217L7.217 35.0391H9.76597C11.0524 49.1137 22.9198 60.1758 37.3242 60.1758C52.5847 60.1758 65 47.7605 65 32.5C65 17.2395 52.5847 4.82422 37.3242 4.82422ZM37.3242 55.0977C25.7222 55.0977 16.136 46.3084 14.87 35.0391H24.2377C25.4268 41.179 30.8421 45.8301 37.3242 45.8301C44.6744 45.8301 50.6543 39.8502 50.6543 32.5C50.6543 25.1498 44.6744 19.1699 37.3242 19.1699C30.8421 19.1699 25.4268 23.821 24.2377 29.9609H14.87C16.136 18.6916 25.7222 9.90234 37.3242 9.90234C49.7845 9.90234 59.9218 20.0397 59.9218 32.5C59.9218 44.9603 49.7845 55.0977 37.3242 55.0977ZM37.3242 29.9609H29.4737C30.5473 26.6496 33.6598 24.248 37.3242 24.248C41.8743 24.248 45.5761 27.9499 45.5761 32.5C45.5761 37.0501 41.8743 40.752 37.3242 40.752C33.6598 40.752 30.5473 38.3504 29.4737 35.0391H37.3242C38.7265 35.0391 39.8633 33.9023 39.8633 32.5C39.8633 31.0977 38.7265 29.9609 37.3242 29.9609Z" fill="black"/>
</g>
<defs>
<clipPath id="clip0">
<rect width="65" height="65" fill="white"/>
</clipPath>
</defs>
</svg>
