<svg width="20" height="20" viewBox="0 0 20 20" fill="none" xmlns="http://www.w3.org/2000/svg">
<path d="M14.4805 0H5.51913C2.47588 0 0 2.476 0 5.51924V14.4806C0 17.524 2.47588 19.9999 5.51913 19.9999H14.4805C17.524 19.9999 19.9999 17.5239 19.9999 14.4806V5.51924C20 2.476 17.524 0 14.4805 0ZM18.2255 14.4806C18.2255 16.5455 16.5455 18.2254 14.4806 18.2254H5.51913C3.45433 18.2255 1.77449 16.5455 1.77449 14.4806V5.51924C1.77449 3.45445 3.45433 1.77449 5.51913 1.77449H14.4805C16.5454 1.77449 18.2254 3.45445 18.2254 5.51924V14.4806H18.2255Z" fill="#9F9F9F"/>
<path d="M10.0001 4.84674C7.15848 4.84674 4.84668 7.15854 4.84668 10.0002C4.84668 12.8417 7.15848 15.1534 10.0001 15.1534C12.8418 15.1534 15.1536 12.8417 15.1536 10.0002C15.1536 7.15854 12.8418 4.84674 10.0001 4.84674ZM10.0001 13.3788C8.13705 13.3788 6.62117 11.8632 6.62117 10.0001C6.62117 8.13687 8.13693 6.62111 10.0001 6.62111C11.8634 6.62111 13.3791 8.13687 13.3791 10.0001C13.3791 11.8632 11.8632 13.3788 10.0001 13.3788Z" fill="#9F9F9F"/>
<path d="M15.3696 3.3421C15.0277 3.3421 14.6919 3.48051 14.4504 3.72303C14.2078 3.96436 14.0683 4.30032 14.0683 4.64339C14.0683 4.98539 14.2079 5.32125 14.4504 5.56376C14.6918 5.80509 15.0277 5.94468 15.3696 5.94468C15.7127 5.94468 16.0475 5.80509 16.29 5.56376C16.5325 5.32125 16.6709 4.98528 16.6709 4.64339C16.6709 4.30032 16.5325 3.96436 16.29 3.72303C16.0486 3.48051 15.7127 3.3421 15.3696 3.3421Z" fill="#9F9F9F"/>
</svg>
