<svg width="80" height="80" viewBox="0 0 80 80" fill="none" xmlns="http://www.w3.org/2000/svg">
<path d="M40 0C17.91 0 0 17.91 0 40C0 62.09 17.91 80 40 80C62.09 80 80 62.09 80 40C80 17.91 62.09 0 40 0ZM49.745 30H52.5C53.88 30 55 31.12 55 32.5C55 33.88 53.88 35 52.5 35H49.745C48.585 40.7 43.535 45 37.5 45H33.535L49.265 60.73C50.24 61.705 50.24 63.29 49.265 64.265C48.78 64.755 48.14 65 47.5 65C46.86 65 46.22 64.755 45.73 64.27L25.73 44.27C25.015 43.55 24.8 42.48 25.19 41.545C25.575 40.61 26.49 40 27.5 40H37.5C40.755 40 43.505 37.905 44.54 35H27.5C26.12 35 25 33.88 25 32.5C25 31.12 26.12 30 27.5 30H44.54C43.505 27.095 40.755 25 37.5 25H27.5C26.12 25 25 23.88 25 22.5C25 21.12 26.12 20 27.5 20H37.5H52.5C53.88 20 55 21.12 55 22.5C55 23.88 53.88 25 52.5 25H47.435C48.54 26.46 49.37 28.14 49.745 30Z" fill="#0268BE"/>
</svg>
