<svg width="65" height="65" viewBox="0 0 65 65" fill="none" xmlns="http://www.w3.org/2000/svg">
<g clip-path="url(#clip0)">
<path d="M32.4999 11.3225C20.8223 11.3225 11.3225 20.8223 11.3225 32.4999C11.3225 44.1768 20.8223 53.6774 32.4999 53.6774C44.1768 53.6774 53.6774 44.1768 53.6774 32.4999C53.6774 20.8223 44.1768 11.3225 32.4999 11.3225ZM32.4999 49.4838C23.135 49.4838 15.516 41.8649 15.516 32.4999C15.516 23.135 23.135 15.516 32.4999 15.516C41.8649 15.516 49.4839 23.135 49.4839 32.4999C49.4839 41.8655 41.8649 49.4838 32.4999 49.4838Z" fill="black"/>
<path d="M32.4999 0C31.3418 0 30.4031 0.938692 30.4031 2.09676V22.9247C30.4031 24.0828 31.3418 25.0214 32.4999 25.0214C33.658 25.0214 34.5967 24.0828 34.5967 22.9247V2.09676C34.5967 0.938692 33.658 0 32.4999 0Z" fill="black"/>
<path d="M32.4999 39.9785C31.3418 39.9785 30.4031 40.9172 30.4031 42.0753V62.9032C30.4031 64.0613 31.3418 65 32.4999 65C33.658 65 34.5967 64.0613 34.5967 62.9032V42.0753C34.5967 40.9171 33.658 39.9785 32.4999 39.9785Z" fill="black"/>
<path d="M62.9033 30.4032H42.0754C40.9173 30.4032 39.9786 31.3419 39.9786 32.5C39.9786 33.658 40.9173 34.5967 42.0754 34.5967H62.9033C64.0614 34.5967 65.0001 33.658 65.0001 32.5C65.0001 31.3419 64.0614 30.4032 62.9033 30.4032Z" fill="black"/>
<path d="M22.9247 30.4032H2.09676C0.938692 30.4032 0 31.3419 0 32.5C0 33.658 0.938692 34.5967 2.09676 34.5967H22.9247C24.0828 34.5967 25.0214 33.658 25.0214 32.5C25.0214 31.3419 24.0829 30.4032 22.9247 30.4032Z" fill="black"/>
</g>
<defs>
<clipPath id="clip0">
<rect width="65" height="65" fill="white"/>
</clipPath>
</defs>
</svg>
