<svg width="176" height="172" viewBox="0 0 176 172" fill="none" xmlns="http://www.w3.org/2000/svg">
<circle cx="93.5" cy="89.5" r="82.5" fill="#0268BE"/>
<circle cx="82.5" cy="82.5" r="82.5" fill="#25D6D9"/>
<g clip-path="url(#clip0)">
<path d="M55.4429 117.307L119.754 105.645C122.918 105.071 125.016 102.042 124.443 98.8794L116.828 56.8843C116.254 53.7217 113.226 51.6219 110.062 52.1956L45.7505 63.8577C42.588 64.4312 40.4884 67.4609 41.0619 70.6234L48.6771 112.619C49.2506 115.781 52.2803 117.881 55.4429 117.307ZM91.2787 106.656L82.4577 108.256L81.4695 102.806L90.2905 101.207L91.2787 106.656ZM104.088 57.5661L112.909 55.9665L113.897 61.4161L105.076 63.0156L104.088 57.5661ZM111.05 97.4425L119.872 95.8427L120.86 101.292L112.038 102.892L111.05 97.4425ZM89.2968 60.2483L98.1192 58.6485L99.1074 64.098L90.285 65.6979L89.2968 60.2483ZM96.2595 100.124L105.082 98.5247L106.07 103.974L97.2477 105.574L96.2595 100.124ZM74.5082 62.9301L83.3291 61.3305L84.3173 66.78L75.4964 68.3796L74.5082 62.9301ZM74.4216 76.5442L88.8709 80.7665C92.2243 81.7469 92.6764 84.2401 89.8805 86.3342L77.8341 95.3626C75.0382 97.4567 72.2642 96.3684 71.6404 92.9282L69.4768 80.9969C68.8519 77.5584 71.067 75.5653 74.4216 76.5442ZM59.7181 65.612L68.5405 64.0122L69.5287 69.4618L60.7063 71.0616L59.7181 65.612ZM66.6808 105.488L75.5018 103.889L76.49 109.338L67.6691 110.938L66.6808 105.488ZM44.9281 68.294L53.7504 66.6942L54.7386 72.1437L45.9163 73.7436L44.9281 68.294ZM51.8908 108.17L60.7132 106.57L61.7014 112.02L52.879 113.62L51.8908 108.17Z" fill="white"/>
</g>
<defs>
<clipPath id="clip0">
<rect width="77" height="77" fill="white" transform="translate(38 53.7388) rotate(-10.2782)"/>
</clipPath>
</defs>
</svg>
